<?xml version="1.0" encoding="UTF-8"?>
<!-- Generator: Adobe Illustrator 22.0.0, SVG Export Plug-In . SVG Version: 6.00 Build 0)  -->
<svg version="1.1" id="Ebene_1" xmlns="http://www.w3.org/2000/svg" xmlns:xlink="http://www.w3.org/1999/xlink" x="0px" y="0px" viewBox="0 0 753.9 244.7" style="enable-background:new 0 0 753.9 244.7;" xml:space="preserve">
<style type="text/css">
	.st0{fill-rule:evenodd;clip-rule:evenodd;}
	.st1{fill-rule:evenodd;clip-rule:evenodd;fill:#009781;}
	.st2{fill:none;stroke:#9B9B9B;stroke-width:7.1253;}
</style>
<g>
	<path class="st0" d="M526,2.6H402.3v42.1h36.2V190h51.4V44.7H526V2.6L526,2.6z M390,189.8h-51.4V2.6H390V189.8L390,189.8z    M330,189.8h-57.1l-67.9-72.9V75.1l65.8-72.7h58.9l-75.8,94.3L330,189.8L330,189.8z"/>
	<polygon class="st0" points="192.6,189.8 192.6,189.8 192.6,189.8 192.6,189.8  "/>
	<polygon class="st0" points="192.6,189.8 192.6,189.8 192.6,189.8 192.6,189.8  "/>
	<path class="st1" d="M46.2,71.1c-9.8,11.9-18.3,25-24.8,39.1l171.2,79.6L46.2,71.1L46.2,71.1z"/>
	<path class="st1" d="M192.6,189.8L112.8,19.9c-14.2,6.5-27.3,14.6-39.2,24.2L192.6,189.8L192.6,189.8L192.6,189.8z"/>
	<path class="st0" d="M192.6,189.8l0.2-187.2c-0.6,0-1,0-1.5,0c-15.2,0-30,1.9-44.2,5.4L192.6,189.8L192.6,189.8L192.6,189.8z"/>
	<polygon class="st0" points="192.6,189.8 192.6,189.8 192.6,189.8 192.6,189.8 192.6,189.8  "/>
	<polygon class="st0" points="192.6,189.8 192.6,189.8 192.6,189.8 192.6,189.8 192.6,189.8  "/>
	<path class="st1" d="M9.1,144c-3.8,14.6-5.8,30-6,45.8h189.5L9.1,144L9.1,144z"/>
	<polygon points="3,236.3 6.3,236.3 6.3,224.9 16.7,236.3 21.6,236.3 9.8,224.1 20.7,213.1 16.3,213.1 6.3,223.3 6.3,213.1 3,213.1    3,236.3  "/>
	<path d="M25.5,223.2c0.4-0.4,0.9-0.7,1.5-0.9c0.5-0.3,1.1-0.5,1.7-0.6c0.6-0.1,1.2-0.2,1.8-0.2c1,0,1.9,0.2,2.5,0.5   c0.6,0.3,1.1,0.8,1.3,1.5c0.3,0.7,0.4,1.5,0.4,2.5c-0.4,0-0.8,0-1.1,0c-0.4,0-0.7,0-1.1,0c-0.4,0-0.7,0-1.1,0   c-0.7,0-1.3,0.1-2.1,0.2c-0.7,0.1-1.4,0.3-2.1,0.6c-0.7,0.3-1.3,0.6-1.9,1c-0.6,0.4-1,1-1.3,1.6c-0.3,0.6-0.5,1.4-0.5,2.2   c0,1.2,0.3,2.2,0.8,3c0.5,0.8,1.3,1.4,2.2,1.7c0.9,0.4,2,0.5,3.2,0.5c0.7,0,1.4-0.1,1.9-0.3c0.6-0.2,1.1-0.4,1.5-0.6   c0.4-0.3,0.8-0.6,1.1-0.8c0.3-0.3,0.5-0.6,0.7-0.8H35v2.2H38c0-0.2,0-0.4-0.1-0.7c0-0.3,0-0.6,0-1.1c0-0.4,0-1,0-1.6v-7   c0-1.5-0.2-2.8-0.7-3.9c-0.5-1-1.2-1.8-2.2-2.4c-1-0.5-2.3-0.8-3.9-0.8c-1.1,0-2.1,0.2-3,0.4c-0.9,0.3-1.8,0.7-2.6,1.2L25.5,223.2   L25.5,223.2z M34.7,229.7c0,0.9-0.2,1.6-0.5,2.3c-0.4,0.7-0.9,1.2-1.6,1.6c-0.7,0.4-1.6,0.6-2.6,0.6c-0.4,0-0.7-0.1-1.1-0.2   c-0.4-0.1-0.7-0.3-1-0.5c-0.3-0.2-0.6-0.5-0.8-0.9c-0.2-0.3-0.3-0.7-0.3-1.2c0-0.6,0.2-1.1,0.5-1.5c0.3-0.4,0.7-0.7,1.1-1   c0.5-0.2,1-0.4,1.5-0.5c0.5-0.1,1.1-0.2,1.5-0.2c0.5,0,0.9-0.1,1.3-0.1c0.3,0,0.7,0,1,0c0.3,0,0.7,0,1,0V229.7L34.7,229.7z"/>
	<path d="M42.9,236.3h3.1v-7.7c0-1.4,0.2-2.7,0.6-3.7c0.4-1,0.9-1.8,1.6-2.4c0.7-0.6,1.5-0.8,2.4-0.9c0.3,0,0.6,0,0.9,0.1   c0.3,0,0.6,0.1,0.9,0.2v-2.8c-0.2,0-0.4-0.1-0.6-0.1c-0.2,0-0.4-0.1-0.6-0.1c-0.2,0-0.5,0-0.8,0c-0.6,0-1.2,0.1-1.8,0.4   c-0.6,0.3-1.1,0.6-1.5,1.1c-0.5,0.5-0.8,1-1.1,1.6h-0.1v-2.6h-2.9V236.3L42.9,236.3z"/>
	<polygon points="56.1,236.3 59.2,236.3 59.2,211.3 56.1,211.3 56.1,236.3  "/>
	<path d="M63.3,235.8c0.7,0.4,1.5,0.6,2.3,0.8c0.8,0.1,1.6,0.2,2.4,0.2c0.8,0,1.5-0.1,2.2-0.3c0.7-0.2,1.3-0.5,1.9-1   c0.6-0.4,1-1,1.3-1.7c0.3-0.7,0.5-1.5,0.5-2.4c0-0.8-0.1-1.4-0.4-2c-0.3-0.5-0.6-1-1.1-1.4c-0.4-0.4-0.9-0.7-1.4-1   c-0.5-0.3-1-0.5-1.6-0.7c-0.5-0.2-1-0.5-1.4-0.7c-0.4-0.3-0.8-0.6-1.1-0.9c-0.3-0.3-0.4-0.8-0.4-1.2c0-0.5,0.1-0.9,0.4-1.2   c0.3-0.3,0.6-0.5,1.1-0.7c0.4-0.2,1-0.2,1.5-0.2c0.2,0,0.4,0,0.7,0.1c0.3,0.1,0.6,0.1,0.9,0.2c0.3,0.1,0.6,0.2,0.9,0.3   c0.3,0.1,0.5,0.2,0.7,0.3l0.3-2.7c-0.6-0.2-1.2-0.3-1.9-0.5c-0.6-0.1-1.3-0.2-2-0.2c-0.8,0-1.6,0.1-2.4,0.3c-0.7,0.2-1.4,0.5-1.9,1   c-0.5,0.4-1,1-1.3,1.6c-0.3,0.7-0.5,1.4-0.5,2.3c0,0.7,0.1,1.3,0.4,1.8c0.3,0.5,0.6,0.9,1.1,1.3c0.4,0.4,0.9,0.7,1.4,1   c0.5,0.3,1,0.5,1.6,0.8c0.5,0.2,1,0.5,1.4,0.8c0.4,0.3,0.8,0.6,1.1,0.9c0.3,0.3,0.4,0.7,0.4,1.1c0,0.5-0.1,0.8-0.3,1.2   c-0.2,0.3-0.4,0.6-0.8,0.8c-0.3,0.2-0.7,0.3-1,0.4c-0.4,0.1-0.7,0.1-1.1,0.1c-0.3,0-0.7,0-1.1-0.1c-0.5-0.1-0.9-0.2-1.4-0.4   c-0.5-0.2-0.9-0.4-1.4-0.7L63.3,235.8L63.3,235.8z"/>
	<path d="M77.6,236.3h3.1v-7.7c0-1.4,0.2-2.7,0.6-3.7c0.4-1,0.9-1.8,1.6-2.4c0.7-0.6,1.5-0.8,2.4-0.9c0.3,0,0.6,0,0.9,0.1   c0.3,0,0.6,0.1,0.9,0.2v-2.8c-0.2,0-0.4-0.1-0.6-0.1c-0.2,0-0.4-0.1-0.6-0.1c-0.2,0-0.5,0-0.8,0c-0.6,0-1.2,0.1-1.8,0.4   c-0.6,0.3-1.1,0.6-1.5,1.1c-0.5,0.5-0.8,1-1.1,1.6h-0.1v-2.6h-2.9V236.3L77.6,236.3z"/>
	<path d="M105.4,219.3h-3.1v7.9c0,1-0.1,2-0.3,2.8c-0.2,0.9-0.5,1.6-0.9,2.2c-0.4,0.6-1,1.1-1.6,1.4c-0.7,0.3-1.4,0.5-2.3,0.5   c-0.9-0.1-1.6-0.3-2.2-0.8c-0.5-0.5-0.9-1.1-1.1-2c-0.2-0.9-0.3-2-0.3-3.3v-8.8h-3.1v10.1c0,1.5,0.2,2.8,0.7,3.9   c0.5,1.1,1.2,1.9,2.1,2.5c0.9,0.6,2.1,0.9,3.6,0.9c0.8,0,1.6-0.1,2.3-0.4c0.7-0.3,1.4-0.6,1.9-1.1c0.6-0.5,1-1,1.3-1.7h0.1v2.7h3   V219.3L105.4,219.3z"/>
	<path d="M110.5,236.3h3.1v-7.9c0-1,0.1-2,0.3-2.8c0.2-0.9,0.5-1.6,0.9-2.2c0.4-0.6,1-1.1,1.6-1.4c0.6-0.3,1.4-0.5,2.3-0.5   c0.9,0.1,1.6,0.3,2.2,0.8c0.5,0.5,0.9,1.1,1.1,2c0.2,0.9,0.3,2,0.3,3.3v8.8h3.1v-10.1c0-1.5-0.2-2.8-0.7-3.9   c-0.4-1.1-1.2-1.9-2.1-2.5c-0.9-0.6-2.1-0.9-3.6-0.9c-1.2,0-2.3,0.2-3.2,0.7c-0.9,0.5-1.7,1.2-2.3,2.1h-0.1v-10.4h-3.1V236.3   L110.5,236.3z"/>
	<path d="M143.7,232.5c-0.2,0.2-0.5,0.3-0.9,0.5c-0.4,0.2-0.8,0.4-1.3,0.6c-0.5,0.2-1,0.3-1.5,0.4c-0.5,0.1-1.1,0.2-1.6,0.2   c-0.8,0-1.5-0.1-2.1-0.4c-0.7-0.3-1.3-0.7-1.8-1.2c-0.5-0.5-0.9-1.1-1.2-1.8c-0.3-0.7-0.4-1.5-0.5-2.3H145c0-1.4-0.1-2.6-0.4-3.8   c-0.3-1.2-0.7-2.2-1.3-3c-0.6-0.9-1.4-1.5-2.3-2c-1-0.5-2.2-0.7-3.6-0.7c-1.2,0-2.3,0.2-3.3,0.6c-1,0.4-1.8,1-2.5,1.8   c-0.7,0.8-1.2,1.7-1.6,2.7c-0.4,1-0.6,2.2-0.6,3.5c0,1.4,0.2,2.6,0.5,3.8c0.4,1.1,0.9,2.1,1.6,2.9c0.7,0.8,1.6,1.4,2.7,1.9   c1.1,0.4,2.4,0.7,3.9,0.7c0.9,0,1.7-0.1,2.4-0.2c0.7-0.1,1.2-0.3,1.7-0.4c0.5-0.2,0.9-0.3,1.3-0.5V232.5L143.7,232.5z M132.9,226.2   c0.1-0.6,0.2-1.1,0.4-1.7c0.2-0.6,0.5-1.1,0.8-1.5c0.4-0.5,0.8-0.8,1.4-1.1c0.6-0.3,1.2-0.4,2-0.4c0.7,0,1.3,0.1,1.8,0.4   c0.5,0.2,1,0.6,1.3,1c0.4,0.4,0.6,0.9,0.8,1.5c0.2,0.6,0.3,1.2,0.3,1.8H132.9L132.9,226.2z"/>
	<path d="M149,236.3h3.1v-7.7c0-1.4,0.2-2.7,0.6-3.7c0.4-1,0.9-1.8,1.6-2.4c0.7-0.6,1.5-0.8,2.4-0.9c0.3,0,0.6,0,0.9,0.1   c0.3,0,0.6,0.1,0.9,0.2v-2.8c-0.2,0-0.4-0.1-0.6-0.1c-0.2,0-0.4-0.1-0.6-0.1c-0.2,0-0.5,0-0.8,0c-0.6,0-1.2,0.1-1.8,0.4   c-0.6,0.3-1.1,0.6-1.5,1.1c-0.5,0.5-0.8,1-1.1,1.6H152v-2.6H149V236.3L149,236.3z"/>
	<polygon points="171.4,236.3 174.7,236.3 174.7,213.1 171.4,213.1 171.4,236.3  "/>
	<path d="M180.2,236.3h3.1v-7.9c0-1,0.1-2,0.3-2.8c0.2-0.9,0.5-1.6,0.9-2.2c0.4-0.6,1-1.1,1.6-1.4c0.6-0.3,1.4-0.5,2.3-0.5   c0.9,0.1,1.6,0.3,2.2,0.8c0.5,0.5,0.9,1.1,1.1,2c0.2,0.9,0.3,2,0.3,3.3v8.8h3.1v-10.1c0-1.5-0.2-2.8-0.7-3.9   c-0.4-1.1-1.2-1.9-2.1-2.5c-0.9-0.6-2.1-0.9-3.6-0.9c-0.8,0-1.6,0.1-2.3,0.4c-0.7,0.2-1.4,0.6-1.9,1.1c-0.6,0.5-1,1-1.3,1.7h-0.1   v-2.7h-3V236.3L180.2,236.3z"/>
	<path d="M198.9,235.8c0.7,0.4,1.5,0.6,2.3,0.8c0.8,0.1,1.6,0.2,2.4,0.2c0.8,0,1.5-0.1,2.2-0.3s1.3-0.5,1.9-1c0.6-0.4,1-1,1.3-1.7   c0.3-0.7,0.5-1.5,0.5-2.4c0-0.8-0.1-1.4-0.4-2c-0.3-0.5-0.6-1-1.1-1.4c-0.4-0.4-0.9-0.7-1.4-1c-0.5-0.3-1-0.5-1.6-0.7   c-0.5-0.2-1-0.5-1.4-0.7c-0.4-0.3-0.8-0.6-1.1-0.9c-0.3-0.3-0.4-0.8-0.4-1.2c0-0.5,0.1-0.9,0.4-1.2c0.3-0.3,0.6-0.5,1.1-0.7   c0.4-0.2,1-0.2,1.5-0.2c0.2,0,0.4,0,0.7,0.1c0.3,0.1,0.6,0.1,0.9,0.2c0.3,0.1,0.6,0.2,0.9,0.3c0.3,0.1,0.5,0.2,0.7,0.3l0.3-2.7   c-0.6-0.2-1.2-0.3-1.9-0.5c-0.6-0.1-1.3-0.2-2-0.2c-0.8,0-1.6,0.1-2.4,0.3c-0.7,0.2-1.4,0.5-1.9,1c-0.5,0.4-1,1-1.3,1.6   c-0.3,0.7-0.5,1.4-0.5,2.3c0,0.7,0.1,1.3,0.4,1.8c0.3,0.5,0.6,0.9,1.1,1.3c0.4,0.4,0.9,0.7,1.4,1c0.5,0.3,1,0.5,1.6,0.8   c0.5,0.2,1,0.5,1.4,0.8c0.4,0.3,0.8,0.6,1.1,0.9c0.3,0.3,0.4,0.7,0.4,1.1c0,0.5-0.1,0.8-0.3,1.2c-0.2,0.3-0.4,0.6-0.8,0.8   c-0.3,0.2-0.7,0.3-1,0.4c-0.4,0.1-0.7,0.1-1.1,0.1c-0.3,0-0.7,0-1.1-0.1c-0.4-0.1-0.9-0.2-1.4-0.4c-0.5-0.2-0.9-0.4-1.4-0.7   L198.9,235.8L198.9,235.8z"/>
	<path d="M222.1,219.3h-4.5v-4.9l-3.1,1v3.9h-3.8v2.5h3.8v9.9c0,1.1,0.2,2.1,0.6,2.8c0.4,0.7,1,1.3,1.8,1.6c0.8,0.3,1.7,0.5,2.8,0.5   c0.5,0,1-0.1,1.4-0.2c0.5-0.1,0.9-0.2,1.2-0.3v-2.7c-0.2,0.2-0.5,0.3-0.9,0.4c-0.4,0.1-0.8,0.2-1.3,0.2c-0.5,0-0.9-0.1-1.3-0.4   c-0.4-0.2-0.7-0.6-0.9-1c-0.2-0.5-0.4-1-0.4-1.7v-9.3h4.5V219.3L222.1,219.3z"/>
	<path d="M226.3,236.3h3.1v-17h-3.1V236.3L226.3,236.3z M229.6,212h-3.5v3.5h3.5V212L229.6,212z"/>
	<path d="M244,219.3h-4.5v-4.9l-3.1,1v3.9h-3.8v2.5h3.8v9.9c0,1.1,0.2,2.1,0.6,2.8c0.4,0.7,1,1.3,1.8,1.6c0.8,0.3,1.7,0.5,2.8,0.5   c0.5,0,1-0.1,1.4-0.2c0.5-0.1,0.9-0.2,1.2-0.3v-2.7c-0.2,0.2-0.5,0.3-0.9,0.4c-0.4,0.1-0.8,0.2-1.3,0.2c-0.5,0-0.9-0.1-1.3-0.4   c-0.4-0.2-0.7-0.6-0.9-1c-0.2-0.5-0.4-1-0.4-1.7v-9.3h4.5V219.3L244,219.3z"/>
	<path d="M262.8,219.3h-3.1v7.9c0,1-0.1,2-0.3,2.8c-0.2,0.9-0.5,1.6-0.9,2.2c-0.4,0.6-1,1.1-1.6,1.4c-0.7,0.3-1.4,0.5-2.3,0.5   c-0.9-0.1-1.6-0.3-2.2-0.8c-0.5-0.5-0.9-1.1-1.1-2c-0.2-0.9-0.3-2-0.3-3.3v-8.8h-3.1v10.1c0,1.5,0.2,2.8,0.7,3.9   c0.5,1.1,1.2,1.9,2.1,2.5c0.9,0.6,2.1,0.9,3.6,0.9c0.8,0,1.6-0.1,2.3-0.4c0.7-0.3,1.4-0.6,1.9-1.1c0.6-0.5,1-1,1.3-1.7h0.1v2.7h3   V219.3L262.8,219.3z"/>
	<path d="M277,219.3h-4.5v-4.9l-3.1,1v3.9h-3.8v2.5h3.8v9.9c0,1.1,0.2,2.1,0.6,2.8c0.4,0.7,1,1.3,1.8,1.6c0.8,0.3,1.7,0.5,2.8,0.5   c0.5,0,1-0.1,1.4-0.2c0.5-0.1,0.9-0.2,1.2-0.3v-2.7c-0.2,0.2-0.5,0.3-0.9,0.4c-0.4,0.1-0.8,0.2-1.3,0.2c-0.5,0-0.9-0.1-1.3-0.4   c-0.4-0.2-0.7-0.6-0.9-1c-0.2-0.5-0.4-1-0.4-1.7v-9.3h4.5V219.3L277,219.3z"/>
	<path d="M292,236.3h3.1v-14.5h4.5v-2.5h-4.5v-1.8c0-0.6,0-1.1,0.1-1.6c0.1-0.5,0.2-0.9,0.4-1.3c0.2-0.4,0.5-0.6,0.9-0.8   c0.4-0.2,0.9-0.3,1.6-0.3c0.3,0,0.5,0,0.8,0.1c0.3,0,0.5,0.1,0.7,0.1l0.1-2.5c-0.3,0-0.6-0.1-1-0.1c-0.3,0-0.7-0.1-1.1-0.1   c-1.2,0-2.1,0.2-2.8,0.5c-0.7,0.3-1.3,0.8-1.7,1.4c-0.4,0.6-0.7,1.3-0.9,2.2c-0.2,0.8-0.2,1.8-0.2,2.8v1.6h-4v2.5h4V236.3   L292,236.3z"/>
	<path d="M306,216.7h3.1v-3.3H306V216.7L306,216.7z M311.4,216.7h3.1v-3.3h-3.1V216.7L311.4,216.7z M317.8,219.3h-3.1v7.9   c0,1-0.1,2-0.3,2.8c-0.2,0.9-0.5,1.6-0.9,2.2c-0.4,0.6-1,1.1-1.6,1.4c-0.7,0.3-1.4,0.5-2.3,0.5c-0.9-0.1-1.6-0.3-2.2-0.8   c-0.5-0.5-0.9-1.1-1.1-2c-0.2-0.9-0.3-2-0.3-3.3v-8.8h-3.1v10.1c0,1.5,0.2,2.8,0.7,3.9c0.5,1.1,1.2,1.9,2.1,2.5   c0.9,0.6,2.1,0.9,3.6,0.9c0.8,0,1.6-0.1,2.3-0.4c0.7-0.3,1.4-0.6,1.9-1.1c0.6-0.5,1-1,1.3-1.7h0.1v2.7h3V219.3L317.8,219.3z"/>
	<path d="M322.9,236.3h3.1v-7.7c0-1.4,0.2-2.7,0.6-3.7c0.4-1,0.9-1.8,1.6-2.4c0.7-0.6,1.5-0.8,2.4-0.9c0.3,0,0.6,0,0.9,0.1   c0.3,0,0.6,0.1,0.9,0.2v-2.8c-0.2,0-0.4-0.1-0.6-0.1c-0.2,0-0.4-0.1-0.6-0.1c-0.2,0-0.5,0-0.8,0c-0.6,0-1.2,0.1-1.8,0.4   c-0.6,0.3-1.1,0.6-1.5,1.1c-0.5,0.5-0.8,1-1.1,1.6h-0.1v-2.6h-2.9V236.3L322.9,236.3z"/>
	<polygon points="349.9,236.3 353.2,236.3 353.2,216 360.5,216 360.5,213.1 342.7,213.1 342.7,216 349.9,216 349.9,236.3  "/>
	<path d="M373.9,232.5c-0.2,0.2-0.5,0.3-0.9,0.5c-0.4,0.2-0.8,0.4-1.3,0.6c-0.5,0.2-1,0.3-1.5,0.4c-0.5,0.1-1.1,0.2-1.6,0.2   c-0.8,0-1.5-0.1-2.1-0.4c-0.7-0.3-1.3-0.7-1.8-1.2c-0.5-0.5-0.9-1.1-1.2-1.8c-0.3-0.7-0.4-1.5-0.5-2.3h12.1c0-1.4-0.1-2.6-0.4-3.8   c-0.3-1.2-0.7-2.2-1.3-3c-0.6-0.9-1.4-1.5-2.3-2c-1-0.5-2.2-0.7-3.6-0.7c-1.2,0-2.3,0.2-3.3,0.6c-1,0.4-1.8,1-2.5,1.8   c-0.7,0.8-1.2,1.7-1.6,2.7c-0.4,1-0.6,2.2-0.6,3.5c0,1.4,0.2,2.6,0.5,3.8c0.4,1.1,0.9,2.1,1.6,2.9c0.7,0.8,1.6,1.4,2.7,1.9   c1.1,0.4,2.4,0.7,3.9,0.7c0.9,0,1.7-0.1,2.4-0.2c0.7-0.1,1.2-0.3,1.7-0.4c0.5-0.2,0.9-0.3,1.3-0.5V232.5L373.9,232.5z M363,226.2   c0.1-0.6,0.2-1.1,0.4-1.7c0.2-0.6,0.5-1.1,0.8-1.5c0.4-0.5,0.8-0.8,1.4-1.1c0.6-0.3,1.2-0.4,2-0.4c0.7,0,1.3,0.1,1.8,0.4   c0.5,0.2,1,0.6,1.3,1c0.4,0.4,0.6,0.9,0.8,1.5c0.2,0.6,0.3,1.2,0.3,1.8H363L363,226.2z"/>
	<path d="M390.3,219.6c-0.3-0.1-0.7-0.2-1.1-0.3c-0.4-0.1-0.9-0.2-1.3-0.2c-0.5-0.1-0.9-0.1-1.4-0.1c-1.3,0-2.5,0.2-3.6,0.7   c-1.1,0.4-2,1.1-2.7,1.9c-0.8,0.8-1.4,1.7-1.8,2.8c-0.4,1.1-0.6,2.3-0.6,3.6c0,1.2,0.2,2.4,0.6,3.4c0.4,1.1,1,2,1.8,2.8   c0.8,0.8,1.7,1.5,2.7,1.9c1.1,0.5,2.2,0.7,3.5,0.7c0.4,0,0.8,0,1.2-0.1c0.4,0,0.9-0.1,1.4-0.2c0.5-0.1,0.9-0.2,1.3-0.4l-0.2-2.8   c-0.3,0.2-0.7,0.4-1.1,0.5c-0.4,0.1-0.8,0.2-1.2,0.3c-0.4,0.1-0.8,0.1-1.1,0.1c-0.8,0-1.5-0.1-2.1-0.4c-0.6-0.2-1.2-0.6-1.6-1   c-0.4-0.4-0.8-0.9-1.1-1.5c-0.3-0.5-0.5-1.1-0.6-1.7c-0.1-0.6-0.2-1.2-0.2-1.8c0-0.8,0.1-1.6,0.4-2.4c0.2-0.8,0.6-1.4,1.1-2   c0.5-0.6,1-1.1,1.7-1.4c0.7-0.3,1.5-0.5,2.3-0.5c0.5,0,1,0.1,1.6,0.2c0.6,0.1,1.2,0.3,1.8,0.6L390.3,219.6L390.3,219.6z"/>
	<path d="M393.8,236.3h3.1v-7.9c0-1,0.1-2,0.3-2.8c0.2-0.9,0.5-1.6,0.9-2.2c0.4-0.6,1-1.1,1.6-1.4c0.6-0.3,1.4-0.5,2.3-0.5   c0.9,0.1,1.6,0.3,2.2,0.8c0.5,0.5,0.9,1.1,1.1,2c0.2,0.9,0.3,2,0.3,3.3v8.8h3.1v-10.1c0-1.5-0.2-2.8-0.7-3.9   c-0.4-1.1-1.2-1.9-2.1-2.5c-0.9-0.6-2.1-0.9-3.6-0.9c-1.2,0-2.3,0.2-3.2,0.7c-0.9,0.5-1.7,1.2-2.3,2.1h-0.1v-10.4h-3.1V236.3   L393.8,236.3z"/>
	<path d="M414,236.3h3.1v-7.9c0-1,0.1-2,0.3-2.8c0.2-0.9,0.5-1.6,0.9-2.2c0.4-0.6,1-1.1,1.6-1.4c0.6-0.3,1.4-0.5,2.3-0.5   c0.9,0.1,1.6,0.3,2.2,0.8c0.5,0.5,0.9,1.1,1.1,2c0.2,0.9,0.3,2,0.3,3.3v8.8h3.1v-10.1c0-1.5-0.2-2.8-0.7-3.9   c-0.4-1.1-1.2-1.9-2.1-2.5c-0.9-0.6-2.1-0.9-3.6-0.9c-0.8,0-1.6,0.1-2.3,0.4c-0.7,0.2-1.4,0.6-1.9,1.1c-0.6,0.5-1,1-1.3,1.7H417   v-2.7h-3V236.3L414,236.3z"/>
	<path d="M433,227.8c0,1.2,0.2,2.4,0.6,3.4c0.4,1.1,1,2,1.8,2.8c0.8,0.8,1.7,1.5,2.7,1.9c1.1,0.5,2.2,0.7,3.5,0.7   c1.3,0,2.5-0.2,3.5-0.7c1.1-0.5,2-1.1,2.7-1.9c0.8-0.8,1.4-1.8,1.8-2.8c0.4-1.1,0.6-2.2,0.6-3.4c0-1.3-0.2-2.5-0.6-3.6   c-0.4-1.1-1-2-1.8-2.8c-0.8-0.8-1.7-1.4-2.7-1.9c-1.1-0.4-2.2-0.7-3.5-0.7c-1.3,0-2.5,0.2-3.6,0.7c-1.1,0.4-2,1.1-2.7,1.9   c-0.8,0.8-1.4,1.7-1.8,2.8C433.2,225.3,433,226.5,433,227.8L433,227.8z M436.4,227.8c0-0.8,0.1-1.6,0.4-2.4c0.2-0.8,0.6-1.4,1-2   c0.5-0.6,1-1.1,1.7-1.4c0.7-0.3,1.4-0.5,2.3-0.5c0.8,0,1.6,0.2,2.2,0.5c0.7,0.3,1.2,0.8,1.7,1.4c0.5,0.6,0.8,1.3,1,2   c0.2,0.8,0.4,1.5,0.4,2.4c0,0.6-0.1,1.2-0.2,1.8c-0.1,0.6-0.3,1.2-0.6,1.7c-0.3,0.5-0.6,1-1,1.5c-0.4,0.4-0.9,0.8-1.5,1   c-0.6,0.2-1.2,0.4-2,0.4c-0.7,0-1.4-0.1-2-0.4c-0.6-0.2-1.1-0.6-1.5-1c-0.4-0.4-0.8-0.9-1-1.5c-0.3-0.5-0.5-1.1-0.6-1.7   C436.4,229.1,436.4,228.4,436.4,227.8L436.4,227.8z"/>
	<polygon points="454.7,236.3 457.9,236.3 457.9,211.3 454.7,211.3 454.7,236.3  "/>
	<path d="M462.3,227.8c0,1.2,0.2,2.4,0.6,3.4c0.4,1.1,1,2,1.8,2.8c0.8,0.8,1.7,1.5,2.7,1.9c1.1,0.5,2.2,0.7,3.5,0.7   c1.3,0,2.5-0.2,3.5-0.7c1.1-0.5,2-1.1,2.7-1.9c0.8-0.8,1.4-1.8,1.8-2.8c0.4-1.1,0.6-2.2,0.6-3.4c0-1.3-0.2-2.5-0.6-3.6   c-0.4-1.1-1-2-1.8-2.8c-0.8-0.8-1.7-1.4-2.7-1.9c-1.1-0.4-2.2-0.7-3.5-0.7c-1.3,0-2.5,0.2-3.6,0.7c-1.1,0.4-2,1.1-2.7,1.9   c-0.8,0.8-1.4,1.7-1.8,2.8C462.5,225.3,462.3,226.5,462.3,227.8L462.3,227.8z M465.6,227.8c0-0.8,0.1-1.6,0.4-2.4   c0.2-0.8,0.6-1.4,1-2c0.5-0.6,1-1.1,1.7-1.4c0.7-0.3,1.4-0.5,2.3-0.5c0.8,0,1.6,0.2,2.2,0.5c0.7,0.3,1.2,0.8,1.7,1.4   c0.5,0.6,0.8,1.3,1,2c0.2,0.8,0.4,1.5,0.4,2.4c0,0.6-0.1,1.2-0.2,1.8c-0.1,0.6-0.3,1.2-0.6,1.7c-0.3,0.5-0.6,1-1,1.5   c-0.4,0.4-0.9,0.8-1.5,1c-0.6,0.2-1.2,0.4-2,0.4c-0.7,0-1.4-0.1-2-0.4c-0.6-0.2-1.1-0.6-1.5-1c-0.4-0.4-0.8-0.9-1-1.5   c-0.3-0.5-0.5-1.1-0.6-1.7C465.7,229.1,465.6,228.4,465.6,227.8L465.6,227.8z"/>
	<path d="M498.6,219.3h-2.9v2.5h-0.1c-0.3-0.6-0.7-1.1-1.2-1.6c-0.5-0.4-1.1-0.8-1.8-1c-0.7-0.2-1.6-0.4-2.6-0.4   c-1,0-1.9,0.2-2.8,0.5c-0.8,0.3-1.5,0.8-2.1,1.4c-0.6,0.6-1.1,1.3-1.5,2c-0.4,0.8-0.7,1.6-0.9,2.5c-0.2,0.9-0.3,1.7-0.3,2.6   c0,1.1,0.2,2.2,0.5,3.2c0.3,1,0.8,1.9,1.4,2.7c0.6,0.8,1.4,1.4,2.3,1.8c0.9,0.4,2,0.7,3.2,0.7c0.7,0,1.4-0.1,2.1-0.3   c0.7-0.2,1.4-0.5,2-0.9c0.6-0.4,1.1-0.9,1.6-1.5h0.1v1.7c0,1.2-0.2,2.2-0.6,3.1c-0.4,0.9-1,1.5-1.8,2c-0.8,0.5-1.7,0.7-2.8,0.7   c-0.6,0-1.1,0-1.6-0.1c-0.5-0.1-1-0.1-1.4-0.3c-0.5-0.1-1-0.3-1.5-0.5c-0.5-0.2-1.1-0.4-1.7-0.7l-0.3,2.9c0.9,0.3,1.7,0.6,2.4,0.7   c0.7,0.2,1.3,0.3,1.9,0.4c0.6,0.1,1.2,0.1,1.8,0.1c2,0,3.7-0.3,5-1c1.3-0.6,2.3-1.6,2.9-2.8c0.6-1.2,0.9-2.7,0.9-4.4V219.3   L498.6,219.3z M490.5,233.8c-0.7,0-1.4-0.2-2-0.5c-0.6-0.3-1.1-0.8-1.5-1.3c-0.4-0.6-0.7-1.2-0.9-1.9c-0.2-0.7-0.3-1.5-0.3-2.3   c0-0.6,0.1-1.2,0.2-1.8c0.1-0.6,0.3-1.2,0.6-1.7c0.2-0.5,0.6-1,0.9-1.5c0.4-0.4,0.8-0.8,1.3-1c0.5-0.2,1.1-0.4,1.7-0.4   c0.8,0,1.6,0.2,2.2,0.5c0.6,0.3,1.1,0.8,1.6,1.4c0.4,0.6,0.7,1.3,0.9,2.1c0.2,0.8,0.3,1.6,0.3,2.5c0,0.8-0.1,1.5-0.4,2.2   c-0.2,0.7-0.6,1.3-1,1.8c-0.4,0.5-1,0.9-1.6,1.2C491.9,233.6,491.3,233.8,490.5,233.8L490.5,233.8z"/>
	<path d="M504.2,236.3h3.1v-17h-3.1V236.3L504.2,236.3z M507.5,212H504v3.5h3.5V212L507.5,212z"/>
	<path d="M525.9,232.5c-0.2,0.2-0.5,0.3-0.9,0.5c-0.4,0.2-0.8,0.4-1.3,0.6c-0.5,0.2-1,0.3-1.5,0.4c-0.5,0.1-1.1,0.2-1.6,0.2   c-0.8,0-1.5-0.1-2.1-0.4c-0.7-0.3-1.3-0.7-1.8-1.2c-0.5-0.5-0.9-1.1-1.2-1.8c-0.3-0.7-0.4-1.5-0.5-2.3h12.1c0-1.4-0.1-2.6-0.4-3.8   c-0.3-1.2-0.7-2.2-1.3-3c-0.6-0.9-1.4-1.5-2.3-2c-1-0.5-2.2-0.7-3.6-0.7c-1.2,0-2.3,0.2-3.3,0.6c-1,0.4-1.8,1-2.5,1.8   c-0.7,0.8-1.2,1.7-1.6,2.7c-0.4,1-0.6,2.2-0.6,3.5c0,1.4,0.2,2.6,0.5,3.8c0.4,1.1,0.9,2.1,1.6,2.9c0.7,0.8,1.6,1.4,2.7,1.9   c1.1,0.4,2.4,0.7,3.9,0.7c0.9,0,1.7-0.1,2.4-0.2c0.7-0.1,1.2-0.3,1.7-0.4c0.5-0.2,0.9-0.3,1.3-0.5V232.5L525.9,232.5z M515.1,226.2   c0.1-0.6,0.2-1.1,0.4-1.7c0.2-0.6,0.5-1.1,0.8-1.5c0.4-0.5,0.8-0.8,1.4-1.1c0.6-0.3,1.2-0.4,2-0.4c0.7,0,1.3,0.1,1.8,0.4   c0.5,0.2,1,0.6,1.3,1c0.4,0.4,0.6,0.9,0.8,1.5c0.2,0.6,0.3,1.2,0.3,1.8H515.1L515.1,226.2z"/>
	<line class="st2" x1="566.3" y1="2.3" x2="566.3" y2="237.1"/>
	<g>
		<path d="M621,35.5l-7.5,5.4l-4.7-7.2l13.5-8.8h9.3v39.8H621V35.5z"/>
		<path d="M652.5,44.2c-3.7-1.3-6.8-4.6-6.8-8.5c0-8.5,7.1-11.5,14.9-11.5c7.9,0,13.7,3.2,13.7,10.2c0,4.9-3.1,7.8-6.6,9.1v0.1    c4.3,1.4,8,3.8,8,9.8c0,8.6-7.3,11.9-15.6,11.9c-8.6,0-15.5-3.2-15.5-11.3C644.6,48.2,648.2,45.5,652.5,44.2L652.5,44.2z     M660,58.2c3,0,5.5-1.9,5.5-5.1c0-3.5-3.3-5-6-5.8c-2.6,1.2-4.6,2.9-4.6,5.9C654.9,56.1,657.2,58.2,660,58.2z M660.2,41    c2.8-1.6,4.5-3,4.5-5.7c0-2.9-2.5-4.2-4.8-4.2c-2.6,0-4.7,1.9-4.7,4.7C655.2,38.8,657.7,39.9,660.2,41z"/>
		<path d="M682.9,57.1c8.1-7,17.4-14.7,17.4-20c0-3.5-2.5-5-5.6-5c-3.4,0-8,1.3-10.4,2.7l-0.4-8.3c5.7-2.1,9.5-2.3,11.8-2.3    c8.9,0,15.3,3.8,15.3,11.7c0,7.8-8.4,15.6-12.1,18.8l-2.8,2.5h15.7v7.5h-28.8V57.1z"/>
		<path d="M722.8,24.9h25.9v7.2h-16.8v6.6c1.5-0.1,2.5-0.2,3.1-0.2c8.1,0,15.2,3.5,15.2,12.3c0,11.1-8.6,14.6-17.5,14.6    c-3.9,0-7.4-0.6-10.7-1.4l0.2-8.6c3,1.5,6.3,2.2,9.7,2.2c3.9,0,8-1.3,8-6.4c0-4.4-4.6-5.8-8.8-5.8c-2.9,0-5.8,0.2-8.7,1    L722.8,24.9z"/>
	</g>
	<g>
		<path d="M621,110.4l-7.5,5.4l-4.7-7.2l13.5-8.8h9.3v39.8H621V110.4z"/>
		<path d="M648,130.6c1.7,1.1,4.5,2.1,8.4,2.1c7.1,0,9.2-4.7,9.3-11.7h-0.1c-1.9,2.7-4.6,4-8.6,4c-7.3,0-11.9-5.4-11.9-12.5    c0-7.4,6.2-13.5,14.9-13.5c11.3,0,15.3,8.9,15.3,18.9c0,12.2-4.4,22.3-17.6,22.3c-4,0-7.3-0.6-10.3-1.8L648,130.6z M660.1,105.9    c-3.3,0-5.1,2.6-5.1,5.6c0,3.3,1.4,6.3,5.1,6.3c3.5,0,5.2-2.8,5.2-5.9C665.3,108.8,663.5,105.9,660.1,105.9z"/>
		<path d="M685,99.8H711v7.2h-16.8v6.6c1.5-0.1,2.5-0.2,3.1-0.2c8.1,0,15.2,3.5,15.2,12.3c0,11.1-8.6,14.6-17.5,14.6    c-3.9,0-7.4-0.6-10.7-1.4l0.2-8.6c3,1.5,6.3,2.2,9.7,2.2c3.9,0,8-1.3,8-6.4c0-4.4-4.6-5.8-8.8-5.8c-2.9,0-5.8,0.2-8.7,1L685,99.8z    "/>
		<path d="M747.8,108.7c-1.7-1.1-4.5-2.1-8.4-2.1c-7.1,0-9.2,4.7-9.3,11.7h0.1c1.9-2.7,4.6-4,8.6-4c7.3,0,11.9,5.4,11.9,12.5    c0,7.4-6.2,13.5-14.9,13.5c-11.3,0-15.3-8.9-15.3-18.9c0-12.2,4.4-22.3,17.6-22.3c4,0,7.3,0.6,10.3,1.8L747.8,108.7z M735.8,133.4    c3.3,0,5.1-2.6,5.1-5.6c0-3.3-1.4-6.3-5.1-6.3c-3.5,0-5.2,2.8-5.2,5.9C730.6,130.5,732.3,133.4,735.8,133.4z"/>
	</g>
	<g>
		<path d="M607.4,206.8c8.1-7,17.4-14.7,17.4-20c0-3.5-2.5-5-5.6-5c-3.4,0-8,1.3-10.4,2.7l-0.4-8.3c5.7-2.1,9.5-2.3,11.8-2.3    c8.9,0,15.3,3.8,15.3,11.7c0,7.8-8.4,15.6-12.1,18.8l-2.8,2.5h15.7v7.5h-28.8V206.8z"/>
		<path d="M644.7,194.5c0-10.3,2.3-20.6,15.4-20.6c13.2,0,15.4,10.3,15.4,20.6s-2.3,20.6-15.4,20.6C647,215,644.7,204.8,644.7,194.5    z M665.4,194.5c0-6.3-0.4-13.4-5.2-13.4c-4.8,0-5.2,7.1-5.2,13.4c0,6.3,0.4,13.4,5.2,13.4C665,207.9,665.4,200.8,665.4,194.5z"/>
		<path d="M682.5,194.5c0-10.3,2.3-20.6,15.4-20.6c13.2,0,15.4,10.3,15.4,20.6s-2.3,20.6-15.4,20.6    C684.8,215,682.5,204.8,682.5,194.5z M703.1,194.5c0-6.3-0.4-13.4-5.2-13.4c-4.8,0-5.2,7.1-5.2,13.4c0,6.3,0.4,13.4,5.2,13.4    C702.7,207.9,703.1,200.8,703.1,194.5z"/>
		<path d="M723.5,205.4c1.7,1.1,4.5,2.1,8.4,2.1c7.1,0,9.2-4.7,9.3-11.7h-0.1c-1.9,2.7-4.6,4-8.6,4c-7.3,0-11.9-5.4-11.9-12.5    c0-7.4,6.2-13.5,14.9-13.5c11.3,0,15.3,8.9,15.3,18.9c0,12.2-4.4,22.3-17.6,22.3c-4,0-7.3-0.6-10.3-1.8L723.5,205.4z M735.5,180.7    c-3.3,0-5.1,2.6-5.1,5.6c0,3.3,1.4,6.3,5.1,6.3c3.5,0,5.2-2.8,5.2-5.9C740.7,183.6,739,180.7,735.5,180.7z"/>
	</g>
</g>
</svg>